<mxfile host="app.diagrams.net" modified="2022-09-14T13:55:20.447Z" agent="5.0 (Macintosh; Intel Mac OS X 10_15_7) AppleWebKit/537.36 (KHTML, like Gecko) Chrome/105.0.0.0 Safari/537.36" etag="uNCfyIeSzwp-_ak4a-2C" version="20.2.8" type="github">
  <diagram id="Y1Np4S13Zg_6slWeH1IB" name="第 1 页">
    <mxGraphModel dx="1371" dy="821" grid="0" gridSize="10" guides="1" tooltips="1" connect="1" arrows="1" fold="1" page="1" pageScale="1" pageWidth="827" pageHeight="1169" math="0" shadow="0">
      <root>
        <mxCell id="0" />
        <mxCell id="1" parent="0" />
        <mxCell id="inNpJdkViMnvvWZYDYjx-15" style="edgeStyle=orthogonalEdgeStyle;rounded=0;orthogonalLoop=1;jettySize=auto;html=1;entryX=0.5;entryY=0;entryDx=0;entryDy=0;" edge="1" parent="1" source="inNpJdkViMnvvWZYDYjx-2" target="inNpJdkViMnvvWZYDYjx-7">
          <mxGeometry relative="1" as="geometry" />
        </mxCell>
        <mxCell id="inNpJdkViMnvvWZYDYjx-20" value="否" style="edgeLabel;html=1;align=center;verticalAlign=middle;resizable=0;points=[];" vertex="1" connectable="0" parent="inNpJdkViMnvvWZYDYjx-15">
          <mxGeometry x="-0.2321" relative="1" as="geometry">
            <mxPoint as="offset" />
          </mxGeometry>
        </mxCell>
        <mxCell id="inNpJdkViMnvvWZYDYjx-16" value="是" style="edgeStyle=orthogonalEdgeStyle;rounded=0;orthogonalLoop=1;jettySize=auto;html=1;entryX=0;entryY=0.5;entryDx=0;entryDy=0;" edge="1" parent="1" source="inNpJdkViMnvvWZYDYjx-2" target="inNpJdkViMnvvWZYDYjx-6">
          <mxGeometry relative="1" as="geometry" />
        </mxCell>
        <mxCell id="inNpJdkViMnvvWZYDYjx-2" value="指纹验证&lt;br&gt;通过" style="rhombus;whiteSpace=wrap;html=1;" vertex="1" parent="1">
          <mxGeometry x="410" y="280" width="100" height="60" as="geometry" />
        </mxCell>
        <mxCell id="inNpJdkViMnvvWZYDYjx-12" style="edgeStyle=orthogonalEdgeStyle;rounded=0;orthogonalLoop=1;jettySize=auto;html=1;entryX=0.5;entryY=0;entryDx=0;entryDy=0;" edge="1" parent="1" source="inNpJdkViMnvvWZYDYjx-3" target="inNpJdkViMnvvWZYDYjx-5">
          <mxGeometry relative="1" as="geometry" />
        </mxCell>
        <mxCell id="inNpJdkViMnvvWZYDYjx-3" value="进入刷卡页" style="rounded=1;whiteSpace=wrap;html=1;" vertex="1" parent="1">
          <mxGeometry x="412.5" y="58" width="95" height="40" as="geometry" />
        </mxCell>
        <mxCell id="inNpJdkViMnvvWZYDYjx-13" style="edgeStyle=orthogonalEdgeStyle;rounded=0;orthogonalLoop=1;jettySize=auto;html=1;" edge="1" parent="1" source="inNpJdkViMnvvWZYDYjx-5" target="inNpJdkViMnvvWZYDYjx-11">
          <mxGeometry relative="1" as="geometry" />
        </mxCell>
        <mxCell id="inNpJdkViMnvvWZYDYjx-5" value="银行卡选中" style="rounded=1;whiteSpace=wrap;html=1;" vertex="1" parent="1">
          <mxGeometry x="412.5" y="131" width="95" height="40" as="geometry" />
        </mxCell>
        <mxCell id="inNpJdkViMnvvWZYDYjx-6" value="展示二维码" style="rounded=1;whiteSpace=wrap;html=1;" vertex="1" parent="1">
          <mxGeometry x="563" y="290" width="95" height="40" as="geometry" />
        </mxCell>
        <mxCell id="inNpJdkViMnvvWZYDYjx-17" style="edgeStyle=orthogonalEdgeStyle;rounded=0;orthogonalLoop=1;jettySize=auto;html=1;entryX=0.5;entryY=0;entryDx=0;entryDy=0;" edge="1" parent="1" source="inNpJdkViMnvvWZYDYjx-7" target="inNpJdkViMnvvWZYDYjx-8">
          <mxGeometry relative="1" as="geometry" />
        </mxCell>
        <mxCell id="inNpJdkViMnvvWZYDYjx-7" value="展示密码验证&lt;br&gt;UI变化" style="rounded=1;whiteSpace=wrap;html=1;" vertex="1" parent="1">
          <mxGeometry x="412.5" y="396" width="95" height="40" as="geometry" />
        </mxCell>
        <mxCell id="inNpJdkViMnvvWZYDYjx-18" value="否" style="edgeStyle=orthogonalEdgeStyle;rounded=0;orthogonalLoop=1;jettySize=auto;html=1;entryX=0;entryY=0.5;entryDx=0;entryDy=0;" edge="1" parent="1" source="inNpJdkViMnvvWZYDYjx-8" target="inNpJdkViMnvvWZYDYjx-11">
          <mxGeometry relative="1" as="geometry">
            <Array as="points">
              <mxPoint x="334" y="519" />
              <mxPoint x="334" y="224" />
            </Array>
          </mxGeometry>
        </mxCell>
        <mxCell id="inNpJdkViMnvvWZYDYjx-19" value="是" style="edgeStyle=orthogonalEdgeStyle;rounded=0;orthogonalLoop=1;jettySize=auto;html=1;entryX=0.5;entryY=0;entryDx=0;entryDy=0;" edge="1" parent="1" source="inNpJdkViMnvvWZYDYjx-8" target="inNpJdkViMnvvWZYDYjx-9">
          <mxGeometry relative="1" as="geometry" />
        </mxCell>
        <mxCell id="inNpJdkViMnvvWZYDYjx-8" value="选择密码&lt;br&gt;验证" style="rhombus;whiteSpace=wrap;html=1;" vertex="1" parent="1">
          <mxGeometry x="410" y="488" width="100" height="60" as="geometry" />
        </mxCell>
        <mxCell id="inNpJdkViMnvvWZYDYjx-22" value="否" style="edgeStyle=orthogonalEdgeStyle;rounded=0;orthogonalLoop=1;jettySize=auto;html=1;entryX=0;entryY=0.5;entryDx=0;entryDy=0;" edge="1" parent="1" source="inNpJdkViMnvvWZYDYjx-9" target="inNpJdkViMnvvWZYDYjx-21">
          <mxGeometry relative="1" as="geometry" />
        </mxCell>
        <mxCell id="inNpJdkViMnvvWZYDYjx-29" style="edgeStyle=orthogonalEdgeStyle;rounded=0;orthogonalLoop=1;jettySize=auto;html=1;" edge="1" parent="1" source="inNpJdkViMnvvWZYDYjx-9" target="inNpJdkViMnvvWZYDYjx-28">
          <mxGeometry relative="1" as="geometry" />
        </mxCell>
        <mxCell id="inNpJdkViMnvvWZYDYjx-9" value="锁屏状态" style="rhombus;whiteSpace=wrap;html=1;" vertex="1" parent="1">
          <mxGeometry x="410" y="599" width="100" height="60" as="geometry" />
        </mxCell>
        <mxCell id="inNpJdkViMnvvWZYDYjx-14" style="edgeStyle=orthogonalEdgeStyle;rounded=0;orthogonalLoop=1;jettySize=auto;html=1;" edge="1" parent="1" source="inNpJdkViMnvvWZYDYjx-11" target="inNpJdkViMnvvWZYDYjx-2">
          <mxGeometry relative="1" as="geometry" />
        </mxCell>
        <mxCell id="inNpJdkViMnvvWZYDYjx-11" value="验证指纹" style="rounded=1;whiteSpace=wrap;html=1;" vertex="1" parent="1">
          <mxGeometry x="412.5" y="204" width="95" height="40" as="geometry" />
        </mxCell>
        <mxCell id="inNpJdkViMnvvWZYDYjx-24" style="edgeStyle=orthogonalEdgeStyle;rounded=0;orthogonalLoop=1;jettySize=auto;html=1;entryX=0.5;entryY=1;entryDx=0;entryDy=0;" edge="1" parent="1" source="inNpJdkViMnvvWZYDYjx-21" target="inNpJdkViMnvvWZYDYjx-23">
          <mxGeometry relative="1" as="geometry" />
        </mxCell>
        <mxCell id="inNpJdkViMnvvWZYDYjx-21" value="启动setting&lt;br&gt;锁屏验证" style="rounded=1;whiteSpace=wrap;html=1;" vertex="1" parent="1">
          <mxGeometry x="563" y="609" width="95" height="40" as="geometry" />
        </mxCell>
        <mxCell id="inNpJdkViMnvvWZYDYjx-25" style="edgeStyle=orthogonalEdgeStyle;rounded=0;orthogonalLoop=1;jettySize=auto;html=1;entryX=1;entryY=0.5;entryDx=0;entryDy=0;" edge="1" parent="1" source="inNpJdkViMnvvWZYDYjx-23" target="inNpJdkViMnvvWZYDYjx-8">
          <mxGeometry relative="1" as="geometry" />
        </mxCell>
        <mxCell id="inNpJdkViMnvvWZYDYjx-26" value="否" style="edgeLabel;html=1;align=center;verticalAlign=middle;resizable=0;points=[];" vertex="1" connectable="0" parent="inNpJdkViMnvvWZYDYjx-25">
          <mxGeometry x="-0.0693" relative="1" as="geometry">
            <mxPoint x="1" as="offset" />
          </mxGeometry>
        </mxCell>
        <mxCell id="inNpJdkViMnvvWZYDYjx-27" value="是" style="edgeStyle=orthogonalEdgeStyle;rounded=0;orthogonalLoop=1;jettySize=auto;html=1;" edge="1" parent="1" source="inNpJdkViMnvvWZYDYjx-23" target="inNpJdkViMnvvWZYDYjx-6">
          <mxGeometry relative="1" as="geometry" />
        </mxCell>
        <mxCell id="inNpJdkViMnvvWZYDYjx-23" value="验证成功" style="rhombus;whiteSpace=wrap;html=1;" vertex="1" parent="1">
          <mxGeometry x="560.5" y="488" width="100" height="60" as="geometry" />
        </mxCell>
        <mxCell id="inNpJdkViMnvvWZYDYjx-31" style="edgeStyle=orthogonalEdgeStyle;rounded=0;orthogonalLoop=1;jettySize=auto;html=1;entryX=0.5;entryY=0;entryDx=0;entryDy=0;" edge="1" parent="1" source="inNpJdkViMnvvWZYDYjx-28" target="inNpJdkViMnvvWZYDYjx-30">
          <mxGeometry relative="1" as="geometry" />
        </mxCell>
        <mxCell id="inNpJdkViMnvvWZYDYjx-28" value="启动keyGuard&lt;br&gt;验证" style="rounded=1;whiteSpace=wrap;html=1;" vertex="1" parent="1">
          <mxGeometry x="412.5" y="693" width="95" height="40" as="geometry" />
        </mxCell>
        <mxCell id="inNpJdkViMnvvWZYDYjx-32" value="否" style="edgeStyle=orthogonalEdgeStyle;rounded=0;orthogonalLoop=1;jettySize=auto;html=1;entryX=0;entryY=0.5;entryDx=0;entryDy=0;" edge="1" parent="1" source="inNpJdkViMnvvWZYDYjx-30" target="inNpJdkViMnvvWZYDYjx-8">
          <mxGeometry relative="1" as="geometry">
            <Array as="points">
              <mxPoint x="367" y="798" />
              <mxPoint x="367" y="518" />
            </Array>
          </mxGeometry>
        </mxCell>
        <mxCell id="inNpJdkViMnvvWZYDYjx-33" style="edgeStyle=orthogonalEdgeStyle;rounded=0;orthogonalLoop=1;jettySize=auto;html=1;entryX=1;entryY=0.5;entryDx=0;entryDy=0;" edge="1" parent="1" source="inNpJdkViMnvvWZYDYjx-30" target="inNpJdkViMnvvWZYDYjx-6">
          <mxGeometry relative="1" as="geometry" />
        </mxCell>
        <mxCell id="inNpJdkViMnvvWZYDYjx-34" value="是" style="edgeLabel;html=1;align=center;verticalAlign=middle;resizable=0;points=[];" vertex="1" connectable="0" parent="inNpJdkViMnvvWZYDYjx-33">
          <mxGeometry x="-0.8757" y="2" relative="1" as="geometry">
            <mxPoint as="offset" />
          </mxGeometry>
        </mxCell>
        <mxCell id="inNpJdkViMnvvWZYDYjx-30" value="验证成功" style="rhombus;whiteSpace=wrap;html=1;" vertex="1" parent="1">
          <mxGeometry x="410" y="768" width="100" height="60" as="geometry" />
        </mxCell>
      </root>
    </mxGraphModel>
  </diagram>
</mxfile>
